<svg width="103" height="101" viewBox="0 0 103 101" fill="none" xmlns="http://www.w3.org/2000/svg">
<path d="M59.5469 9.46875H43.4531C31.0095 9.46875 20.9219 19.3605 20.9219 31.5625V69.4375C20.9219 81.6395 31.0095 91.5312 43.4531 91.5312H59.5469C71.9905 91.5312 82.0781 81.6395 82.0781 69.4375V31.5625C82.0781 19.3605 71.9905 9.46875 59.5469 9.46875Z" stroke="white" stroke-width="2" stroke-linecap="round" stroke-linejoin="round"/>
<path d="M20.9219 41.0312H82.0781" stroke="white" stroke-width="2" stroke-linecap="round" stroke-linejoin="round"/>
<path d="M51 9H63C74.0457 9 83 17.9543 83 29V41H51V9Z" fill="white"/>
<path d="M51.5 41.0312L51.5 9.46875" stroke="white" stroke-width="2" stroke-linecap="round" stroke-linejoin="round"/>
<path d="M56.5 25C56.5 27.4086 55.9024 29.5652 54.9624 31.1032C54.0173 32.6499 52.7787 33.5 51.5 33.5C50.2213 33.5 48.9827 32.6499 48.0376 31.1032C47.0976 29.5652 46.5 27.4086 46.5 25C46.5 22.5914 47.0976 20.4348 48.0376 18.8968C48.9827 17.3501 50.2213 16.5 51.5 16.5C52.7787 16.5 54.0173 17.3501 54.9624 18.8968C55.9024 20.4348 56.5 22.5914 56.5 25Z" fill="#3D3D3D" stroke="white"/>
</svg>
