<svg width="103" height="103" viewBox="0 0 103 103" fill="none" xmlns="http://www.w3.org/2000/svg">
<path d="M59.5469 9.65625H43.4531C31.0095 9.65625 20.9219 19.7438 20.9219 32.1875V70.8125C20.9219 83.2562 31.0095 93.3438 43.4531 93.3438H59.5469C71.9905 93.3438 82.0781 83.2562 82.0781 70.8125V32.1875C82.0781 19.7438 71.9905 9.65625 59.5469 9.65625Z" stroke="white" stroke-width="2" stroke-linecap="round" stroke-linejoin="round"/>
<path d="M20.9219 41.8438H82.0781" stroke="white" stroke-width="2" stroke-linecap="round" stroke-linejoin="round"/>
<path d="M51.5 41.8438L51.5 9.65625" stroke="white" stroke-width="2" stroke-linecap="round" stroke-linejoin="round"/>
<path d="M56.5 26C56.5 28.4086 55.9024 30.5652 54.9624 32.1032C54.0173 33.6499 52.7787 34.5 51.5 34.5C50.2213 34.5 48.9827 33.6499 48.0376 32.1032C47.0976 30.5652 46.5 28.4086 46.5 26C46.5 23.5914 47.0976 21.4348 48.0376 19.8968C48.9827 18.3501 50.2213 17.5 51.5 17.5C52.7787 17.5 54.0173 18.3501 54.9624 19.8968C55.9024 21.4348 56.5 23.5914 56.5 26Z" fill="white" stroke="white"/>
</svg>
